<svg 
 xmlns="http://www.w3.org/2000/svg"
 xmlns:xlink="http://www.w3.org/1999/xlink"
 width="260px" height="46px">
<path fill-rule="evenodd"  fill="rgb(0, 0, 0)"
 d="M253.229,33.871 C252.556,33.871 251.795,33.784 250.917,33.607 L250.917,38.831 C250.917,39.656 250.654,39.924 249.864,39.924 L247.578,39.924 C246.757,39.924 246.495,39.656 246.495,38.831 L246.495,20.262 C246.495,19.291 246.729,18.937 247.665,18.550 C249.248,17.930 251.238,17.636 253.611,17.636 C257.916,17.636 259.996,19.820 259.996,23.746 L259.996,27.467 C259.996,31.627 257.711,33.871 253.229,33.871 ZM255.544,23.775 C255.544,22.331 254.725,21.622 253.083,21.622 C252.412,21.622 251.737,21.679 251.062,21.827 C250.974,21.856 250.917,21.916 250.917,22.034 L250.917,29.708 C251.649,29.826 252.323,29.886 252.880,29.886 C254.665,29.886 255.544,29.090 255.544,27.467 L255.544,23.775 ZM237.268,33.871 C236.595,33.871 235.834,33.784 234.956,33.607 L234.956,38.831 C234.956,39.656 234.693,39.924 233.901,39.924 L231.617,39.924 C230.796,39.924 230.535,39.656 230.535,38.831 L230.535,20.262 C230.535,19.291 230.768,18.937 231.705,18.550 C233.287,17.930 235.277,17.636 237.650,17.636 C241.956,17.636 244.035,19.820 244.035,23.746 L244.035,27.467 C244.035,31.627 241.750,33.871 237.268,33.871 ZM239.583,23.775 C239.583,22.331 238.764,21.622 237.123,21.622 C236.451,21.622 235.775,21.679 235.102,21.827 C235.013,21.856 234.956,21.916 234.956,22.034 L234.956,29.708 C235.688,29.826 236.362,29.886 236.919,29.886 C238.704,29.886 239.583,29.090 239.583,27.467 L239.583,23.775 ZM221.252,33.870 C218.701,33.870 216.973,33.488 216.009,32.690 C215.041,31.894 214.544,30.685 214.544,29.001 C214.544,25.371 216.448,24.159 221.368,24.159 C222.128,24.159 222.831,24.188 223.448,24.219 L223.448,23.569 C223.448,22.122 222.685,21.385 221.192,21.385 C220.107,21.385 219.318,21.740 218.761,22.477 C218.263,23.158 218.087,23.275 217.268,22.948 L215.658,22.272 C214.925,21.945 214.720,21.443 215.071,20.707 C216.152,18.670 218.233,17.636 221.339,17.636 C225.704,17.636 227.868,19.704 227.868,23.864 L227.868,31.361 C227.868,32.394 227.635,32.722 226.785,33.074 C225.614,33.607 223.770,33.870 221.252,33.870 ZM223.448,27.613 C223.272,27.613 222.891,27.613 222.304,27.585 C221.720,27.553 221.279,27.553 220.987,27.553 C219.434,27.553 218.966,28.056 218.966,28.970 C218.966,29.916 219.405,30.419 220.927,30.419 C221.952,30.419 222.744,30.388 223.242,30.299 C223.389,30.270 223.448,30.181 223.448,30.093 L223.448,27.613 ZM208.744,32.092 C209.243,33.041 209.068,33.427 208.008,33.427 L205.977,33.427 C204.712,33.427 204.417,33.280 204.034,32.419 L202.473,28.771 C202.149,27.969 201.503,27.585 200.591,27.585 L199.562,27.585 L199.562,32.300 C199.562,33.161 199.297,33.427 198.442,33.427 L196.236,33.427 C195.382,33.427 195.117,33.161 195.117,32.300 L195.117,12.605 C195.117,11.744 195.382,11.477 196.236,11.477 L198.442,11.477 C199.297,11.477 199.562,11.744 199.562,12.605 L199.562,23.609 L200.180,23.609 L200.356,23.609 L203.681,18.892 C204.182,18.091 204.506,18.004 205.772,18.004 L207.743,18.004 C208.829,18.004 209.097,18.448 208.478,19.306 L204.534,24.735 C205.123,25.152 205.683,25.863 206.183,26.874 L208.744,32.092 ZM191.201,33.426 L188.908,33.426 C188.084,33.426 187.816,33.162 187.816,32.330 L187.816,23.847 C187.816,22.364 186.994,21.621 185.318,21.621 C184.551,21.621 183.875,21.710 183.256,21.888 C183.198,21.888 183.169,21.918 183.169,22.008 L183.169,32.330 C183.169,33.162 182.900,33.426 182.079,33.426 L179.814,33.426 C178.989,33.426 178.724,33.162 178.724,32.330 L178.724,20.345 C178.724,19.367 178.959,19.013 179.903,18.626 C181.608,17.915 183.609,17.556 185.904,17.556 C190.141,17.556 192.261,19.604 192.261,23.697 L192.261,32.330 C192.261,33.162 191.999,33.426 191.201,33.426 ZM169.395,33.873 C166.832,33.873 165.100,33.486 164.127,32.685 C163.156,31.886 162.655,30.671 162.655,28.978 C162.655,25.330 164.567,24.112 169.512,24.112 C170.277,24.112 170.983,24.144 171.602,24.171 L171.602,23.520 C171.602,22.067 170.837,21.324 169.336,21.324 C168.246,21.324 167.452,21.681 166.892,22.422 C166.393,23.103 166.216,23.223 165.392,22.896 L163.775,22.214 C163.039,21.888 162.831,21.384 163.185,20.643 C164.275,18.596 166.364,17.557 169.482,17.557 C173.868,17.557 176.046,19.635 176.046,23.816 L176.046,31.350 C176.046,32.390 175.811,32.715 174.957,33.071 C173.781,33.606 171.927,33.873 169.395,33.873 ZM171.602,27.584 C171.426,27.584 171.042,27.584 170.455,27.553 C169.866,27.524 169.423,27.524 169.131,27.524 C167.571,27.524 167.097,28.027 167.097,28.949 C167.097,29.897 167.541,30.401 169.071,30.401 C170.101,30.401 170.896,30.371 171.396,30.284 C171.543,30.254 171.602,30.164 171.602,30.074 L171.602,27.584 ZM160.917,27.582 C160.917,29.422 160.272,30.847 159.006,31.886 C157.711,32.921 156.033,33.425 153.972,33.425 L145.585,33.425 C144.675,33.425 144.380,33.131 144.380,32.210 L144.380,13.581 C144.380,12.663 144.675,12.366 145.585,12.366 L153.856,12.366 C157.771,12.366 160.123,14.413 160.123,17.971 C160.123,19.961 159.448,21.412 158.093,22.363 L158.093,22.481 C159.977,23.282 160.917,25.002 160.917,27.582 ZM153.121,16.638 L149.176,16.638 L149.176,20.672 L153.121,20.672 C154.562,20.672 155.267,19.988 155.267,18.653 C155.267,17.320 154.562,16.638 153.121,16.638 ZM153.678,24.855 L149.176,24.855 L149.176,29.155 L153.678,29.155 C155.149,29.155 155.886,28.443 155.886,27.019 C155.886,25.566 155.149,24.855 153.678,24.855 ZM129.078,40.121 C126.032,40.121 123.958,39.210 122.815,37.380 C122.318,36.642 122.464,36.052 123.254,35.638 L124.920,34.784 C125.740,34.341 126.121,34.461 126.619,35.166 C127.147,35.905 127.936,36.287 128.992,36.287 C130.542,36.287 131.331,35.491 131.331,33.899 L131.331,32.688 C130.628,32.838 129.719,32.896 128.610,32.896 C124.395,32.896 122.288,30.862 122.288,26.791 L122.288,19.091 C122.288,18.268 122.551,18.000 123.370,18.000 L125.624,18.000 C126.443,18.000 126.708,18.268 126.708,19.091 L126.708,26.643 C126.708,28.116 127.528,28.855 129.194,28.855 C129.868,28.855 130.571,28.797 131.331,28.648 L131.331,19.091 C131.331,18.268 131.594,18.000 132.413,18.000 L134.696,18.000 C135.486,18.000 135.751,18.268 135.751,19.091 L135.751,33.574 C135.751,37.675 133.642,40.121 129.078,40.121 ZM112.836,33.781 C110.554,33.781 108.709,33.457 107.306,32.809 C106.369,32.336 106.223,32.099 106.223,31.156 L106.223,12.601 C106.223,11.775 106.486,11.511 107.306,11.511 L109.588,11.511 C110.378,11.511 110.641,11.775 110.641,12.601 L110.641,17.852 C111.548,17.648 112.485,17.558 113.394,17.558 C117.606,17.558 119.714,19.740 119.714,23.663 L119.714,27.352 C119.714,31.627 117.433,33.781 112.836,33.781 ZM115.266,23.693 C115.266,22.248 114.447,21.541 112.807,21.541 C112.074,21.541 111.373,21.659 110.641,21.864 L110.641,29.415 C110.641,29.504 110.670,29.533 110.730,29.564 C111.228,29.710 111.842,29.798 112.602,29.798 C114.387,29.798 115.266,28.971 115.266,27.352 L115.266,23.693 ZM90.920,40.121 C87.876,40.121 85.799,39.210 84.658,37.380 C84.159,36.642 84.307,36.052 85.095,35.638 L86.762,34.784 C87.582,34.341 87.964,34.461 88.461,35.166 C88.989,35.905 89.778,36.287 90.833,36.287 C92.383,36.287 93.173,35.491 93.173,33.899 L93.173,32.688 C92.470,32.838 91.563,32.896 90.452,32.896 C86.237,32.896 84.130,30.862 84.130,26.791 L84.130,19.091 C84.130,18.268 84.395,18.000 85.215,18.000 L87.465,18.000 C88.285,18.000 88.550,18.268 88.550,19.091 L88.550,26.643 C88.550,28.116 89.370,28.855 91.036,28.855 C91.709,28.855 92.413,28.797 93.173,28.648 L93.173,19.091 C93.173,18.268 93.435,18.000 94.255,18.000 L96.538,18.000 C97.328,18.000 97.593,18.268 97.593,19.091 L97.593,33.574 C97.593,37.675 95.484,40.121 90.920,40.121 ZM74.736,33.781 C72.191,33.781 70.464,33.399 69.499,32.600 C68.533,31.803 68.035,30.596 68.035,28.914 C68.035,25.287 69.940,24.077 74.856,24.077 C75.615,24.077 76.319,24.106 76.932,24.134 L76.932,23.485 C76.932,22.042 76.172,21.303 74.679,21.303 C73.594,21.303 72.807,21.658 72.250,22.395 C71.752,23.074 71.577,23.192 70.760,22.868 L69.147,22.188 C68.417,21.865 68.211,21.361 68.563,20.625 C69.648,18.591 71.722,17.557 74.825,17.557 C79.186,17.557 81.350,19.621 81.350,23.780 L81.350,31.275 C81.350,32.306 81.117,32.629 80.268,32.984 C79.099,33.516 77.254,33.781 74.736,33.781 ZM76.932,27.529 C76.756,27.529 76.375,27.529 75.791,27.498 C75.206,27.468 74.769,27.468 74.473,27.468 C72.923,27.468 72.456,27.971 72.456,28.884 C72.456,29.830 72.893,30.328 74.417,30.328 C75.439,30.328 76.229,30.301 76.727,30.212 C76.873,30.182 76.932,30.095 76.932,30.004 L76.932,27.529 ZM59.579,26.526 L55.308,26.526 L55.308,32.129 C55.308,33.042 55.016,33.338 54.108,33.338 L51.738,33.338 C50.832,33.338 50.539,33.042 50.539,32.129 L50.539,13.605 C50.539,12.691 50.832,12.397 51.738,12.397 L59.579,12.397 C63.997,12.397 66.750,15.079 66.750,19.475 C66.750,23.870 64.029,26.526 59.579,26.526 ZM59.082,16.761 L55.308,16.761 L55.308,22.130 L59.082,22.130 C60.810,22.130 61.805,21.154 61.805,19.475 C61.805,17.793 60.810,16.761 59.082,16.761 ZM36.404,34.500 L13.615,34.500 C12.428,34.500 11.465,33.534 11.465,32.343 C11.465,32.241 11.475,32.144 11.487,32.043 C11.487,31.639 11.597,31.231 11.832,30.866 L21.583,15.811 L4.728,15.811 C4.489,15.811 4.298,16.003 4.298,16.242 L4.298,39.818 C4.298,40.056 4.489,40.250 4.728,40.250 L16.767,40.250 C17.006,40.250 17.198,40.056 17.198,39.818 L17.198,38.236 C17.198,37.762 17.584,37.375 18.056,37.375 L20.637,37.375 C21.113,37.375 21.498,37.762 21.498,38.236 L21.498,43.700 C21.498,44.970 20.471,46.001 19.203,46.001 L2.292,46.001 C1.026,46.001 -0.002,44.970 -0.002,43.700 L-0.002,13.800 C-0.002,12.529 1.026,11.498 2.292,11.498 L25.368,11.498 C26.554,11.498 27.518,12.464 27.518,13.654 C27.518,13.757 27.508,13.854 27.495,13.951 C27.495,14.356 27.386,14.765 27.149,15.132 L17.400,30.188 L33.968,30.188 C34.204,30.188 34.398,29.994 34.398,29.756 L34.398,4.741 C34.398,4.503 34.204,4.310 33.968,4.310 L21.928,4.310 C21.690,4.310 21.498,4.503 21.498,4.741 L21.498,7.759 C21.498,8.237 21.113,8.623 20.637,8.623 L18.056,8.623 C17.584,8.623 17.198,8.237 17.198,7.759 L17.198,2.299 C17.198,1.028 18.225,-0.002 19.489,-0.002 L36.404,-0.002 C37.670,-0.002 38.698,1.028 38.698,2.299 L38.698,32.199 C38.698,33.468 37.670,34.500 36.404,34.500 ZM10.739,44.260 C11.373,44.260 11.886,43.749 11.886,43.117 C11.886,42.486 11.373,41.975 10.739,41.975 C10.105,41.975 9.593,42.486 9.593,43.117 C9.593,43.749 10.105,44.260 10.739,44.260 Z"/>
</svg>