<svg 
 xmlns="http://www.w3.org/2000/svg"
 xmlns:xlink="http://www.w3.org/1999/xlink"
 width="60px" height="56px">
<path fill-rule="evenodd"  fill="rgb(20, 20, 19)"
 d="M58.541,50.509 C56.592,53.947 53.126,56.000 49.266,56.000 L10.685,56.000 C6.836,56.000 3.396,53.973 1.471,50.598 C-0.478,47.185 -0.490,43.092 1.434,39.655 L20.774,5.465 C22.686,2.052 26.140,-0.000 30.012,-0.000 C33.885,-0.000 37.339,2.040 39.250,5.478 L58.566,39.629 C60.490,43.029 60.477,47.097 58.541,50.509 ZM54.385,42.110 L35.057,7.933 C34.008,6.058 32.122,4.936 30.012,4.936 C27.891,4.936 26.016,6.044 24.967,7.921 L5.628,42.097 C4.567,43.986 4.580,46.227 5.640,48.104 C6.689,49.955 8.575,51.051 10.672,51.051 L49.253,51.051 C51.376,51.051 53.275,49.931 54.347,48.042 C55.407,46.165 55.420,43.948 54.385,42.110 ZM32.381,32.615 C32.307,33.408 32.307,34.126 32.307,34.907 C32.245,36.204 31.259,37.198 30.000,37.198 C28.742,37.198 27.768,36.267 27.693,34.983 C27.483,31.192 27.274,27.477 27.064,23.687 C26.991,22.692 26.929,21.684 26.854,20.689 C26.854,19.041 27.768,17.680 29.235,17.252 C30.703,16.899 32.171,17.617 32.800,19.028 C33.009,19.531 33.083,20.035 33.083,20.602 C33.009,22.175 32.873,23.750 32.800,25.324 C32.663,27.755 32.516,30.185 32.381,32.615 ZM30.000,39.352 C31.689,39.352 33.083,40.776 33.009,42.576 C33.083,44.214 31.616,45.649 30.000,45.649 C28.322,45.649 26.917,44.214 26.917,42.500 C26.917,40.787 28.322,39.352 30.000,39.352 Z"/>
</svg>