<svg xmlns="http://www.w3.org/2000/svg" width="150" height="33" viewBox="0 0 150 33">
  <defs>
    <style>
      .cls-1, .cls-2, .cls-3, .cls-4 {
        fill-rule: evenodd;
      }

      .cls-2 {
        fill: #ff5f00;
      }

      .cls-3 {
        fill: #f79e1b;
      }

      .cls-4 {
        fill: #eb001b;
      }
    </style>
  </defs>
  <g id="Powered_by_MC.svg" data-name="Powered by MC.svg">
    <path class="cls-1" d="M4,837.7a3.565,3.565,0,0,1,1.466.305,3.632,3.632,0,0,1,1.191.852,3.962,3.962,0,0,1,.8,1.3,4.845,4.845,0,0,1,0,3.3,3.983,3.983,0,0,1-.8,1.3,3.626,3.626,0,0,1-1.191.85A3.534,3.534,0,0,1,4,845.91a2.879,2.879,0,0,1-1.38-.309,2.98,2.98,0,0,1-.965-0.822v4.185H0.02V837.907H1.653v0.928a2.971,2.971,0,0,1,.965-0.823A2.879,2.879,0,0,1,4,837.7Zm-0.2,1.605a2.181,2.181,0,0,0-.923.19,2.156,2.156,0,0,0-.711.526,2.384,2.384,0,0,0-.461.789,3.094,3.094,0,0,0,0,1.987,2.389,2.389,0,0,0,.461.79,2.153,2.153,0,0,0,.711.525,2.182,2.182,0,0,0,.923.191,2.2,2.2,0,0,0,.945-0.2,2.1,2.1,0,0,0,.712-0.538,2.418,2.418,0,0,0,.446-0.793,3.1,3.1,0,0,0,0-1.939,2.428,2.428,0,0,0-.446-0.793,2.128,2.128,0,0,0-.712-0.538A2.181,2.181,0,0,0,3.8,839.308Zm9.448-1.605a4.089,4.089,0,0,1,1.607.313,3.878,3.878,0,0,1,2.122,2.163,4.5,4.5,0,0,1,0,3.256,3.881,3.881,0,0,1-2.122,2.162,4.278,4.278,0,0,1-3.212,0,3.867,3.867,0,0,1-1.274-.863,3.992,3.992,0,0,1-.84-1.3,4.5,4.5,0,0,1,0-3.256,4,4,0,0,1,.84-1.3,3.882,3.882,0,0,1,1.274-.863A4.081,4.081,0,0,1,13.252,837.7Zm0,1.605a2.344,2.344,0,0,0-.929.182,2.21,2.21,0,0,0-.743.513,2.4,2.4,0,0,0-.492.79,2.949,2.949,0,0,0,0,2.027,2.4,2.4,0,0,0,.492.79,2.2,2.2,0,0,0,.743.513,2.453,2.453,0,0,0,1.859,0,2.229,2.229,0,0,0,.747-0.513,2.379,2.379,0,0,0,.5-0.79,2.949,2.949,0,0,0,0-2.027,2.379,2.379,0,0,0-.5-0.79,2.244,2.244,0,0,0-.747-0.513A2.345,2.345,0,0,0,13.252,839.308Zm14.115,4.559,1.766-5.96h1.7l-2.478,7.8H26.406l-1.853-5.879L22.7,845.707H20.778l-2.477-7.8h1.743l1.758,5.927,1.845-5.927H25.5Zm8.215-6.164a3.4,3.4,0,0,1,1.433.3,3.228,3.228,0,0,1,1.118.838,3.979,3.979,0,0,1,.727,1.3,5.05,5.05,0,0,1,.262,1.664c0,0.11,0,.217-0.008.326s-0.013.212-.023,0.309H33.558a2.6,2.6,0,0,0,.288.9,2.124,2.124,0,0,0,.509.616,2,2,0,0,0,.665.353,2.534,2.534,0,0,0,.765.114,3.15,3.15,0,0,0,1.13-.215,3.642,3.642,0,0,0,1.036-.607l0.812,1.213a4.031,4.031,0,0,1-1.457.855,5.321,5.321,0,0,1-1.622.244,4,4,0,0,1-1.548-.293,3.5,3.5,0,0,1-1.211-.83,3.789,3.789,0,0,1-.789-1.3,4.8,4.8,0,0,1-.282-1.685,4.9,4.9,0,0,1,.274-1.67,3.878,3.878,0,0,1,.766-1.3A3.421,3.421,0,0,1,34.069,838,3.74,3.74,0,0,1,35.582,837.7Zm-0.032,1.514a2.051,2.051,0,0,0-.777.139,1.689,1.689,0,0,0-.587.394,2.083,2.083,0,0,0-.4.612,2.98,2.98,0,0,0-.219.778H37.45a2.486,2.486,0,0,0-.625-1.418A1.7,1.7,0,0,0,35.55,839.217Zm9.388-1.514a3.85,3.85,0,0,1,.675.053,2.864,2.864,0,0,1,.583.167l-0.39,1.686a2.25,2.25,0,0,0-.6-0.213,3.077,3.077,0,0,0-.641-0.073,1.815,1.815,0,0,0-.718.139,1.534,1.534,0,0,0-.564.407,1.959,1.959,0,0,0-.367.66,2.767,2.767,0,0,0-.133.887v4.291H41.147v-7.8h1.617v0.879a2.3,2.3,0,0,1,.93-0.823A2.9,2.9,0,0,1,44.938,837.7Zm5.8,0a3.409,3.409,0,0,1,1.435.3,3.234,3.234,0,0,1,1.117.838,3.96,3.96,0,0,1,.727,1.3,5.044,5.044,0,0,1,.262,1.664c0,0.11,0,.217-0.007.326s-0.014.212-.024,0.309H48.713a2.6,2.6,0,0,0,.289.9,2.135,2.135,0,0,0,.507.616,2,2,0,0,0,.665.353,2.533,2.533,0,0,0,.765.114,3.15,3.15,0,0,0,1.13-.215,3.628,3.628,0,0,0,1.036-.607l0.813,1.213a4.04,4.04,0,0,1-1.458.855,5.332,5.332,0,0,1-1.622.244,3.99,3.99,0,0,1-1.547-.293,3.5,3.5,0,0,1-1.212-.83,3.789,3.789,0,0,1-.789-1.3,4.8,4.8,0,0,1-.281-1.685,4.883,4.883,0,0,1,.274-1.67,3.876,3.876,0,0,1,.765-1.3A3.43,3.43,0,0,1,49.225,838,3.74,3.74,0,0,1,50.737,837.7Zm-0.031,1.514a2.053,2.053,0,0,0-.778.139,1.676,1.676,0,0,0-.586.394,2.074,2.074,0,0,0-.4.612,2.984,2.984,0,0,0-.219.778h3.885a2.487,2.487,0,0,0-.625-1.418A1.7,1.7,0,0,0,50.706,839.217Zm8.8-1.514a2.881,2.881,0,0,1,1.384.313,2.971,2.971,0,0,1,.969.835v-4.869h1.634v11.725H61.859V844.77a2.781,2.781,0,0,1-2.353,1.14,3.521,3.521,0,0,1-1.469-.306,3.636,3.636,0,0,1-1.188-.85,3.966,3.966,0,0,1-.8-1.3,4.846,4.846,0,0,1,0-3.3,3.945,3.945,0,0,1,.8-1.3,3.642,3.642,0,0,1,1.188-.852A3.552,3.552,0,0,1,59.506,837.7Zm0.2,1.605a2.179,2.179,0,0,0-.95.2,2.145,2.145,0,0,0-.708.538,2.424,2.424,0,0,0-.445.793,3.081,3.081,0,0,0,0,1.939,2.414,2.414,0,0,0,.445.793,2.118,2.118,0,0,0,.708.538,2.344,2.344,0,0,0,1.872.008,2.15,2.15,0,0,0,.711-0.525,2.382,2.382,0,0,0,.462-0.79,3.091,3.091,0,0,0,0-1.987,2.377,2.377,0,0,0-.462-0.789,2.153,2.153,0,0,0-.711-0.526A2.182,2.182,0,0,0,59.7,839.308ZM74.254,837.7a3.561,3.561,0,0,1,1.466.305,3.634,3.634,0,0,1,1.192.852,3.962,3.962,0,0,1,.8,1.3,4.862,4.862,0,0,1,0,3.3,3.983,3.983,0,0,1-.8,1.3,3.628,3.628,0,0,1-1.192.85,3.53,3.53,0,0,1-1.466.306,2.875,2.875,0,0,1-1.379-.309,2.981,2.981,0,0,1-.965-0.822v0.928H70.276V833.982H71.91v4.853a2.972,2.972,0,0,1,.965-0.823A2.875,2.875,0,0,1,74.254,837.7Zm-0.2,1.605a2.179,2.179,0,0,0-.922.19,2.145,2.145,0,0,0-.711.526,2.385,2.385,0,0,0-.461.789,3.093,3.093,0,0,0,0,1.987,2.39,2.39,0,0,0,.461.79,2.142,2.142,0,0,0,.711.525A2.334,2.334,0,0,0,75,844.107a2.088,2.088,0,0,0,.711-0.538,2.4,2.4,0,0,0,.446-0.793,3.077,3.077,0,0,0,0-1.939,2.406,2.406,0,0,0-.446-0.793A2.113,2.113,0,0,0,75,839.506,2.182,2.182,0,0,0,74.059,839.308Zm7.028,9.7H79.273l2.681-4.91-3.322-6.195h1.836l2.408,4.478,2.322-4.478h1.8Z" transform="translate(0 -825)"/>
    <path class="cls-2" d="M130.369,854.526H116.091V828.978h14.278v25.548Z" transform="translate(0 -825)"/>
    <path class="cls-3" d="M148.076,851.82V851.3h0.212V851.19h-0.539V851.3h0.211v0.523h0.116Zm1.048,0v-0.63h-0.166l-0.19.433-0.19-.433h-0.165v0.63h0.116v-0.476l0.178,0.411h0.122l0.178-.411v0.476h0.117Zm0.509-10.068a16.333,16.333,0,0,1-26.4,12.774,16.206,16.206,0,0,0,0-25.548A16.334,16.334,0,0,1,149.633,841.752Z" transform="translate(0 -825)"/>
    <path class="cls-4" d="M117,841.752a16.193,16.193,0,0,1,6.233-12.774,16.248,16.248,0,1,0,0,25.548A16.193,16.193,0,0,1,117,841.752Z" transform="translate(0 -825)"/>
  </g>
</svg>
