<svg 
 xmlns="http://www.w3.org/2000/svg"
 xmlns:xlink="http://www.w3.org/1999/xlink"
 width="24px" height="23px">
<path fill-rule="evenodd"  fill="rgb(0, 0, 0)"
 d="M11.556,23.012 C5.194,23.012 0.018,17.850 0.018,11.504 C0.018,5.158 5.194,-0.005 11.556,-0.005 C17.917,-0.005 23.092,5.158 23.092,11.504 C23.092,17.850 17.917,23.012 11.556,23.012 ZM11.556,2.088 C6.351,2.088 2.116,6.312 2.116,11.504 C2.116,16.696 6.351,20.919 11.556,20.919 C16.761,20.919 20.994,16.696 20.994,11.504 C20.994,6.312 16.761,2.088 11.556,2.088 ZM11.732,7.865 L11.357,7.865 C10.373,7.865 10.087,7.613 10.087,6.871 L10.087,6.731 C10.087,5.988 10.373,5.736 11.357,5.736 L11.732,5.736 C12.680,5.736 13.001,5.988 13.001,6.731 L13.001,6.871 C13.001,7.613 12.680,7.865 11.732,7.865 ZM10.809,10.052 L12.297,10.052 C12.812,10.052 12.984,10.176 12.984,10.564 L12.984,16.736 C12.984,17.123 12.812,17.248 12.297,17.248 L10.809,17.248 C10.275,17.248 10.104,17.123 10.104,16.736 L10.104,10.564 C10.104,10.176 10.275,10.052 10.809,10.052 Z"/>
</svg>