<svg 
 xmlns="http://www.w3.org/2000/svg"
 xmlns:xlink="http://www.w3.org/1999/xlink"
 width="27px" height="32px">
<path fill-rule="evenodd"  fill="rgb(0, 0, 0)"
 d="M25.403,23.999 L9.500,23.999 C8.673,23.999 8.001,23.327 8.001,22.499 C8.001,22.429 8.008,22.361 8.017,22.290 C8.017,22.009 8.092,21.725 8.256,21.471 L15.061,10.998 L3.300,10.998 C3.134,10.998 2.999,11.132 2.999,11.298 L2.999,27.698 C2.999,27.864 3.134,27.999 3.300,27.999 L11.701,27.999 C11.867,27.999 12.001,27.864 12.001,27.698 L12.001,26.598 C12.001,26.268 12.270,25.999 12.600,25.999 L14.401,25.999 C14.733,25.999 15.002,26.268 15.002,26.598 L15.002,30.398 C15.002,31.282 14.285,32.000 13.401,32.000 L1.601,32.000 C0.716,32.000 -0.000,31.282 -0.000,30.398 L-0.000,9.600 C-0.000,8.715 0.716,7.997 1.601,7.997 L17.701,7.997 C18.529,7.997 19.202,8.670 19.202,9.498 C19.202,9.570 19.195,9.636 19.186,9.704 C19.186,9.986 19.111,10.271 18.945,10.526 L12.142,21.000 L23.703,21.000 C23.867,21.000 24.003,20.865 24.003,20.698 L24.003,3.297 C24.003,3.132 23.867,2.998 23.703,2.998 L15.302,2.998 C15.136,2.998 15.002,3.132 15.002,3.297 L15.002,5.397 C15.002,5.729 14.733,5.997 14.401,5.997 L12.600,5.997 C12.270,5.997 12.001,5.729 12.001,5.397 L12.001,1.599 C12.001,0.715 12.718,-0.002 13.600,-0.002 L25.403,-0.002 C26.287,-0.002 27.004,0.715 27.004,1.599 L27.004,22.398 C27.004,23.282 26.287,23.999 25.403,23.999 ZM7.494,30.789 C7.936,30.789 8.295,30.433 8.295,29.994 C8.295,29.556 7.936,29.199 7.494,29.199 C7.052,29.199 6.695,29.556 6.695,29.994 C6.695,30.433 7.052,30.789 7.494,30.789 Z"/>
</svg>