<svg xmlns="http://www.w3.org/2000/svg" xmlns:xlink="http://www.w3.org/1999/xlink" preserveAspectRatio="xMidYMid" width="266.75" height="32.5" viewBox="0 0 266.75 32.5">
  <defs>
    <style>
      .cls-1 {
        fill: #000;
      }

      .cls-1, .cls-2, .cls-3, .cls-4 {
        fill-rule: evenodd;
      }

      .cls-2 {
        fill: #ff5f00;
      }

      .cls-3 {
        fill: #f79e1b;
      }

      .cls-4 {
        fill: #eb001b;
      }
    </style>
  </defs>
  <g>
    <path d="M2.925,13.513 C3.306,13.513 3.664,13.587 3.998,13.733 C4.331,13.880 4.622,14.084 4.870,14.347 C5.118,14.608 5.312,14.920 5.453,15.283 C5.594,15.645 5.664,16.041 5.664,16.471 C5.664,16.902 5.594,17.298 5.453,17.660 C5.312,18.022 5.118,18.334 4.870,18.596 C4.622,18.858 4.331,19.062 3.998,19.209 C3.664,19.356 3.306,19.429 2.925,19.429 C2.533,19.429 2.196,19.355 1.916,19.206 C1.636,19.057 1.400,18.860 1.209,18.614 L1.209,21.630 L0.015,21.630 L0.015,13.660 L1.209,13.660 L1.209,14.329 C1.400,14.082 1.636,13.885 1.916,13.736 C2.196,13.587 2.533,13.513 2.925,13.513 ZM2.782,14.669 C2.534,14.669 2.309,14.715 2.108,14.807 C1.905,14.899 1.732,15.026 1.588,15.186 C1.442,15.347 1.330,15.536 1.250,15.755 C1.170,15.974 1.130,16.213 1.130,16.471 C1.130,16.729 1.170,16.968 1.250,17.187 C1.330,17.406 1.442,17.596 1.588,17.756 C1.732,17.917 1.905,18.043 2.108,18.135 C2.309,18.227 2.534,18.273 2.782,18.273 C3.037,18.273 3.269,18.225 3.474,18.129 C3.680,18.034 3.854,17.904 3.995,17.742 C4.136,17.579 4.244,17.388 4.321,17.169 C4.397,16.950 4.435,16.717 4.435,16.471 C4.435,16.225 4.397,15.992 4.321,15.773 C4.244,15.554 4.136,15.363 3.995,15.200 C3.854,15.038 3.680,14.909 3.474,14.813 C3.269,14.717 3.037,14.669 2.782,14.669 ZM9.696,13.513 C10.119,13.513 10.511,13.588 10.871,13.739 C11.232,13.890 11.543,14.097 11.806,14.361 C12.070,14.625 12.275,14.938 12.424,15.297 C12.573,15.657 12.647,16.049 12.647,16.471 C12.647,16.894 12.573,17.285 12.424,17.645 C12.275,18.005 12.070,18.316 11.806,18.581 C11.543,18.845 11.232,19.053 10.871,19.203 C10.511,19.353 10.119,19.429 9.696,19.429 C9.273,19.429 8.881,19.353 8.521,19.203 C8.161,19.053 7.850,18.845 7.589,18.581 C7.327,18.316 7.123,18.005 6.974,17.645 C6.826,17.285 6.751,16.894 6.751,16.471 C6.751,16.049 6.826,15.657 6.974,15.297 C7.123,14.938 7.327,14.625 7.589,14.361 C7.850,14.097 8.161,13.890 8.521,13.739 C8.881,13.588 9.273,13.513 9.696,13.513 ZM9.696,14.669 C9.452,14.669 9.226,14.714 9.016,14.802 C8.806,14.890 8.625,15.012 8.473,15.171 C8.320,15.329 8.200,15.520 8.112,15.740 C8.024,15.962 7.981,16.205 7.981,16.471 C7.981,16.738 8.024,16.981 8.112,17.202 C8.200,17.422 8.320,17.613 8.473,17.771 C8.625,17.930 8.806,18.053 9.016,18.141 C9.226,18.229 9.452,18.273 9.696,18.273 C9.940,18.273 10.167,18.229 10.377,18.141 C10.586,18.053 10.768,17.930 10.923,17.771 C11.077,17.613 11.198,17.422 11.286,17.202 C11.374,16.981 11.417,16.738 11.417,16.471 C11.417,16.205 11.374,15.962 11.286,15.740 C11.198,15.520 11.077,15.329 10.923,15.171 C10.768,15.012 10.586,14.890 10.377,14.802 C10.167,14.714 9.940,14.669 9.696,14.669 ZM20.024,17.956 L21.317,13.660 L22.563,13.660 L20.751,19.283 L19.321,19.283 L17.965,15.045 L16.610,19.283 L15.203,19.283 L13.390,13.660 L14.665,13.660 L15.952,17.932 L17.302,13.660 L18.658,13.660 L20.024,17.956 ZM26.034,13.513 C26.416,13.513 26.765,13.584 27.084,13.727 C27.402,13.870 27.675,14.072 27.901,14.332 C28.128,14.592 28.306,14.903 28.434,15.265 C28.561,15.627 28.625,16.027 28.625,16.465 C28.625,16.543 28.623,16.622 28.619,16.699 C28.616,16.778 28.610,16.853 28.602,16.923 L24.553,16.923 C24.591,17.177 24.662,17.394 24.765,17.574 C24.868,17.754 24.992,17.902 25.137,18.018 C25.281,18.133 25.443,18.218 25.623,18.273 C25.801,18.328 25.989,18.355 26.183,18.355 C26.458,18.355 26.733,18.303 27.009,18.200 C27.286,18.096 27.539,17.950 27.767,17.762 L28.362,18.637 C28.027,18.930 27.671,19.136 27.296,19.253 C26.920,19.371 26.524,19.429 26.109,19.429 C25.697,19.429 25.319,19.359 24.976,19.218 C24.633,19.077 24.338,18.877 24.090,18.619 C23.842,18.361 23.650,18.050 23.512,17.686 C23.375,17.322 23.307,16.917 23.307,16.471 C23.307,16.033 23.373,15.632 23.507,15.268 C23.640,14.904 23.827,14.592 24.067,14.332 C24.307,14.072 24.594,13.870 24.928,13.727 C25.261,13.584 25.630,13.513 26.034,13.513 ZM26.012,14.605 C25.798,14.605 25.608,14.638 25.442,14.705 C25.277,14.771 25.134,14.866 25.014,14.989 C24.894,15.112 24.795,15.259 24.719,15.430 C24.643,15.599 24.589,15.786 24.559,15.990 L27.401,15.990 C27.336,15.552 27.184,15.211 26.943,14.968 C26.704,14.726 26.393,14.605 26.012,14.605 ZM32.880,13.513 C33.063,13.513 33.227,13.526 33.374,13.551 C33.521,13.576 33.663,13.617 33.800,13.671 L33.514,14.886 C33.388,14.820 33.242,14.769 33.074,14.734 C32.906,14.698 32.751,14.681 32.605,14.681 C32.414,14.681 32.240,14.714 32.079,14.781 C31.919,14.847 31.782,14.945 31.667,15.074 C31.553,15.204 31.463,15.362 31.399,15.550 C31.334,15.737 31.301,15.951 31.301,16.190 L31.301,19.283 L30.106,19.283 L30.106,13.660 L31.290,13.660 L31.290,14.294 C31.473,14.024 31.699,13.826 31.971,13.700 C32.241,13.575 32.544,13.513 32.880,13.513 ZM37.123,13.513 C37.504,13.513 37.854,13.584 38.173,13.727 C38.491,13.870 38.763,14.072 38.991,14.332 C39.217,14.592 39.395,14.903 39.523,15.265 C39.650,15.627 39.714,16.027 39.714,16.465 C39.714,16.543 39.712,16.622 39.708,16.699 C39.704,16.778 39.699,16.853 39.691,16.923 L35.642,16.923 C35.680,17.177 35.750,17.394 35.854,17.574 C35.957,17.754 36.080,17.902 36.226,18.018 C36.370,18.133 36.533,18.218 36.711,18.273 C36.891,18.328 37.077,18.355 37.272,18.355 C37.546,18.355 37.822,18.303 38.099,18.200 C38.375,18.096 38.627,17.950 38.856,17.762 L39.451,18.637 C39.115,18.930 38.760,19.136 38.384,19.253 C38.008,19.371 37.613,19.429 37.198,19.429 C36.785,19.429 36.409,19.359 36.065,19.218 C35.722,19.077 35.427,18.877 35.179,18.619 C34.931,18.361 34.738,18.050 34.602,17.686 C34.464,17.322 34.395,16.917 34.395,16.471 C34.395,16.033 34.462,15.632 34.595,15.268 C34.729,14.904 34.915,14.592 35.156,14.332 C35.396,14.072 35.683,13.870 36.017,13.727 C36.350,13.584 36.719,13.513 37.123,13.513 ZM37.100,14.605 C36.887,14.605 36.697,14.638 36.531,14.705 C36.365,14.771 36.222,14.866 36.103,14.989 C35.983,15.112 35.884,15.259 35.808,15.430 C35.732,15.599 35.679,15.786 35.648,15.990 L38.490,15.990 C38.425,15.552 38.273,15.211 38.032,14.968 C37.792,14.726 37.481,14.605 37.100,14.605 ZM43.540,13.513 C43.932,13.513 44.270,13.588 44.552,13.739 C44.834,13.890 45.071,14.090 45.261,14.340 L45.261,10.831 L46.456,10.831 L46.456,19.283 L45.261,19.283 L45.261,18.608 C45.071,18.858 44.834,19.057 44.552,19.206 C44.270,19.355 43.932,19.429 43.540,19.429 C43.155,19.429 42.797,19.356 42.465,19.209 C42.133,19.062 41.843,18.858 41.596,18.596 C41.347,18.334 41.153,18.022 41.012,17.660 C40.871,17.298 40.801,16.902 40.801,16.471 C40.801,16.041 40.871,15.645 41.012,15.283 C41.153,14.920 41.347,14.608 41.596,14.347 C41.843,14.084 42.133,13.880 42.465,13.733 C42.797,13.587 43.155,13.513 43.540,13.513 ZM43.683,14.669 C43.424,14.669 43.191,14.717 42.988,14.813 C42.784,14.909 42.611,15.038 42.470,15.200 C42.329,15.363 42.221,15.554 42.144,15.773 C42.068,15.992 42.030,16.225 42.030,16.471 C42.030,16.717 42.068,16.950 42.144,17.169 C42.221,17.388 42.329,17.579 42.470,17.742 C42.611,17.904 42.784,18.034 42.988,18.129 C43.191,18.225 43.424,18.273 43.683,18.273 C43.930,18.273 44.156,18.227 44.357,18.135 C44.560,18.043 44.733,17.917 44.878,17.756 C45.023,17.596 45.136,17.406 45.215,17.187 C45.295,16.968 45.336,16.729 45.336,16.471 C45.336,16.213 45.295,15.974 45.215,15.755 C45.136,15.536 45.023,15.347 44.878,15.186 C44.733,15.026 44.560,14.899 44.357,14.807 C44.156,14.715 43.930,14.669 43.683,14.669 ZM54.331,13.513 C54.712,13.513 55.069,13.587 55.403,13.733 C55.737,13.880 56.027,14.084 56.275,14.347 C56.523,14.608 56.718,14.920 56.858,15.283 C57.000,15.645 57.070,16.041 57.070,16.471 C57.070,16.902 57.000,17.298 56.858,17.660 C56.718,18.022 56.523,18.334 56.275,18.596 C56.027,18.858 55.737,19.062 55.403,19.209 C55.069,19.356 54.712,19.429 54.331,19.429 C53.938,19.429 53.602,19.355 53.321,19.206 C53.041,19.057 52.806,18.860 52.615,18.614 L52.615,19.283 L51.420,19.283 L51.420,10.831 L52.615,10.831 L52.615,14.329 C52.806,14.082 53.041,13.885 53.321,13.736 C53.602,13.587 53.938,13.513 54.331,13.513 ZM54.188,14.669 C53.939,14.669 53.715,14.715 53.512,14.807 C53.311,14.899 53.137,15.026 52.992,15.186 C52.848,15.347 52.735,15.536 52.655,15.755 C52.575,15.974 52.535,16.213 52.535,16.471 C52.535,16.729 52.575,16.968 52.655,17.187 C52.735,17.406 52.848,17.596 52.992,17.756 C53.137,17.917 53.311,18.043 53.512,18.135 C53.715,18.227 53.939,18.273 54.188,18.273 C54.443,18.273 54.674,18.225 54.880,18.129 C55.085,18.034 55.259,17.904 55.400,17.742 C55.541,17.579 55.650,17.388 55.726,17.169 C55.802,16.950 55.841,16.717 55.841,16.471 C55.841,16.225 55.802,15.992 55.726,15.773 C55.650,15.554 55.541,15.363 55.400,15.200 C55.259,15.038 55.085,14.909 54.880,14.813 C54.674,14.717 54.443,14.669 54.188,14.669 ZM59.329,21.665 L58.002,21.665 L59.964,18.126 L57.534,13.660 L58.877,13.660 L60.638,16.888 L62.337,13.660 L63.652,13.660 L59.329,21.665 Z" class="cls-1"/>
    <path d="M114.120,29.026 L99.840,29.026 L99.840,3.478 L114.120,3.478 L114.120,29.026 Z" class="cls-2"/>
    <path d="M117.065,32.500 C113.258,32.500 109.756,31.202 106.980,29.026 C110.775,26.051 113.213,21.435 113.213,16.252 C113.213,11.069 110.775,6.453 106.980,3.478 C109.756,1.302 113.258,0.004 117.065,0.004 C126.077,0.004 133.383,7.279 133.383,16.252 C133.383,25.225 126.077,32.500 117.065,32.500 ZM132.038,25.797 L131.826,25.797 L131.826,26.320 L131.711,26.320 L131.711,25.797 L131.498,25.797 L131.498,25.691 L132.038,25.691 L132.038,25.797 ZM132.518,26.123 L132.708,25.690 L132.873,25.690 L132.873,26.320 L132.757,26.320 L132.757,25.843 L132.578,26.255 L132.458,26.255 L132.279,25.845 L132.279,26.320 L132.162,26.320 L132.162,25.690 L132.328,25.690 L132.518,26.123 Z" class="cls-3"/>
    <path d="M100.747,16.252 C100.747,11.069 103.185,6.453 106.980,3.478 C104.204,1.302 100.702,0.004 96.895,0.004 C87.883,0.004 80.577,7.279 80.577,16.252 C80.577,25.225 87.883,32.500 96.895,32.500 C100.702,32.500 104.204,31.202 106.980,29.026 C103.185,26.051 100.747,21.435 100.747,16.252 Z" class="cls-4"/>
    <path d="M266.694,21.679 C266.657,21.762 266.607,21.835 266.544,21.897 C266.480,21.959 266.406,22.009 266.321,22.045 C266.236,22.081 266.145,22.100 266.048,22.100 C265.949,22.100 265.856,22.081 265.771,22.045 C265.685,22.009 265.610,21.959 265.547,21.897 C265.484,21.835 265.434,21.762 265.397,21.679 C265.361,21.597 265.342,21.508 265.342,21.414 C265.342,21.320 265.361,21.231 265.397,21.148 C265.434,21.064 265.484,20.991 265.547,20.929 C265.610,20.867 265.685,20.818 265.771,20.782 C265.856,20.746 265.949,20.728 266.048,20.728 C266.145,20.728 266.236,20.746 266.321,20.782 C266.406,20.818 266.480,20.867 266.544,20.929 C266.607,20.991 266.657,21.064 266.694,21.148 C266.730,21.231 266.749,21.320 266.749,21.414 C266.749,21.508 266.730,21.597 266.694,21.679 ZM266.539,21.205 C266.511,21.141 266.473,21.084 266.425,21.035 C266.376,20.988 266.320,20.950 266.256,20.922 C266.192,20.895 266.122,20.881 266.048,20.881 C265.973,20.881 265.902,20.895 265.837,20.922 C265.771,20.950 265.714,20.988 265.665,21.035 C265.617,21.084 265.578,21.141 265.551,21.205 C265.523,21.270 265.510,21.340 265.510,21.414 C265.510,21.488 265.523,21.557 265.551,21.622 C265.578,21.687 265.617,21.744 265.665,21.792 C265.714,21.840 265.771,21.878 265.837,21.907 C265.902,21.934 265.973,21.948 266.048,21.948 C266.122,21.948 266.192,21.934 266.256,21.907 C266.320,21.878 266.376,21.840 266.425,21.792 C266.473,21.744 266.511,21.687 266.539,21.622 C266.566,21.557 266.580,21.488 266.580,21.414 C266.580,21.340 266.566,21.270 266.539,21.205 ZM266.186,21.730 L265.992,21.491 L265.930,21.491 L265.930,21.730 L265.793,21.730 L265.793,21.093 L266.089,21.093 C266.171,21.093 266.235,21.111 266.279,21.148 C266.323,21.184 266.345,21.234 266.345,21.296 C266.345,21.349 266.328,21.392 266.292,21.426 C266.257,21.461 266.206,21.482 266.141,21.489 L266.351,21.730 L266.186,21.730 ZM266.173,21.361 C266.195,21.347 266.206,21.325 266.206,21.296 C266.206,21.268 266.195,21.247 266.173,21.233 C266.152,21.219 266.123,21.212 266.087,21.212 L265.930,21.212 L265.930,21.382 L266.087,21.382 C266.123,21.382 266.152,21.375 266.173,21.361 ZM260.927,20.414 C260.178,21.386 259.042,21.997 257.499,21.997 C254.456,21.997 252.072,19.623 252.072,16.322 C252.072,13.022 254.456,10.649 257.499,10.649 C259.042,10.649 260.178,11.259 260.927,12.231 L260.927,6.580 L263.288,6.580 L263.288,16.322 L263.288,21.725 L260.927,21.725 L260.927,20.414 ZM257.794,12.864 C255.751,12.864 254.502,14.423 254.502,16.322 C254.502,18.221 255.751,19.781 257.794,19.781 C259.747,19.781 261.063,18.289 261.063,16.322 C261.063,14.356 259.747,12.864 257.794,12.864 ZM249.166,12.887 C247.622,12.887 246.850,13.881 246.850,15.667 L246.850,21.725 L244.489,21.725 L244.489,10.920 L246.828,10.920 L246.828,12.231 C247.440,11.282 248.326,10.649 249.689,10.649 C250.165,10.649 250.846,10.739 251.368,10.943 L250.642,13.158 C250.142,12.954 249.643,12.887 249.166,12.887 ZM239.017,20.414 C238.268,21.386 237.132,21.997 235.589,21.997 C232.546,21.997 230.162,19.623 230.162,16.322 C230.162,13.022 232.546,10.649 235.589,10.649 C237.132,10.649 238.268,11.259 239.017,12.231 L239.017,10.920 L241.378,10.920 L241.378,16.322 L241.378,21.725 L239.017,21.725 L239.017,20.414 ZM235.884,12.864 C233.840,12.864 232.591,14.423 232.591,16.322 C232.591,18.221 233.840,19.781 235.884,19.781 C237.836,19.781 239.153,18.289 239.153,16.322 C239.153,14.356 237.836,12.864 235.884,12.864 ZM224.985,19.781 C226.007,19.781 226.938,19.442 227.824,18.809 L228.959,20.708 C227.778,21.635 226.689,21.997 225.054,21.997 C221.557,21.997 219.264,19.600 219.264,16.322 C219.264,13.045 221.557,10.649 225.054,10.649 C226.689,10.649 227.778,11.010 228.959,11.937 L227.824,13.836 C226.938,13.203 226.007,12.864 224.985,12.864 C223.101,12.887 221.716,14.243 221.716,16.322 C221.716,18.402 223.101,19.759 224.985,19.781 ZM216.358,12.887 C214.814,12.887 214.042,13.881 214.042,15.667 L214.042,21.725 L211.680,21.725 L211.680,10.920 L214.019,10.920 L214.019,12.231 C214.632,11.282 215.517,10.649 216.879,10.649 C217.357,10.649 218.037,10.739 218.560,10.943 L217.833,13.158 C217.334,12.954 216.834,12.887 216.358,12.887 ZM201.145,17.227 C201.486,19.171 202.871,19.872 204.392,19.872 C205.482,19.872 206.640,19.465 207.548,18.741 L208.706,20.482 C207.390,21.589 205.891,21.997 204.256,21.997 C201.009,21.997 198.693,19.759 198.693,16.322 C198.693,12.954 200.919,10.649 204.097,10.649 C207.140,10.649 209.228,12.954 209.251,16.322 C209.251,16.639 209.228,16.933 209.205,17.227 L201.145,17.227 ZM204.051,12.751 C202.372,12.751 201.417,13.813 201.168,15.373 L206.799,15.373 C206.549,13.700 205.573,12.751 204.051,12.751 ZM194.448,19.759 C195.060,19.759 195.833,19.555 196.536,19.148 L197.218,21.160 C196.468,21.680 195.287,21.997 194.266,21.997 C191.473,21.997 190.497,20.505 190.497,17.995 L190.497,13.067 L188.295,13.067 L188.295,10.920 L190.497,10.920 L190.497,7.642 L192.881,7.642 L192.881,10.920 L196.741,10.920 L196.741,13.067 L192.881,13.067 L192.881,17.950 C192.881,19.035 193.267,19.759 194.448,19.759 ZM181.801,15.079 L182.913,15.237 C185.275,15.577 186.705,16.571 186.705,18.470 C186.705,20.527 184.888,21.997 181.756,21.997 C179.984,21.997 178.349,21.544 177.055,20.595 L178.168,18.764 C178.963,19.374 180.143,19.894 181.778,19.894 C183.390,19.894 184.253,19.420 184.253,18.583 C184.253,17.973 183.640,17.634 182.346,17.453 L181.233,17.295 C178.804,16.955 177.487,15.870 177.487,14.107 C177.487,11.959 179.258,10.649 182.005,10.649 C183.730,10.649 185.297,11.033 186.433,11.779 L185.411,13.678 C184.752,13.271 183.412,12.751 182.028,12.751 C180.734,12.751 179.962,13.226 179.962,14.017 C179.962,14.740 180.779,14.944 181.801,15.079 ZM172.401,20.414 C171.652,21.386 170.516,21.997 168.973,21.997 C165.930,21.997 163.546,19.623 163.546,16.322 C163.546,13.022 165.930,10.649 168.973,10.649 C170.516,10.649 171.652,11.259 172.401,12.231 L172.401,10.920 L174.762,10.920 L174.762,16.322 L174.762,21.725 L172.401,21.725 L172.401,20.414 ZM169.267,12.864 C167.224,12.864 165.976,14.423 165.976,16.322 C165.976,18.221 167.224,19.781 169.267,19.781 C171.220,19.781 172.537,18.289 172.537,16.322 C172.537,14.356 171.220,12.864 169.267,12.864 ZM159.073,15.712 C159.073,13.881 158.301,12.864 156.689,12.864 C155.122,12.864 154.033,13.858 154.033,15.735 L154.033,21.725 L151.649,21.725 L151.649,15.712 C151.649,13.881 150.854,12.864 149.288,12.864 C147.675,12.864 146.631,13.858 146.631,15.735 L146.631,21.725 L144.247,21.725 L144.247,10.920 L146.608,10.920 L146.608,12.253 C147.494,10.988 148.629,10.649 149.787,10.649 C151.444,10.649 152.625,11.372 153.375,12.570 C154.373,11.056 155.804,10.626 157.189,10.649 C159.823,10.671 161.457,12.389 161.457,14.944 L161.457,21.725 L159.073,21.725 L159.073,15.712 ZM132.757,25.843 L132.578,26.255 L132.458,26.255 L132.279,25.845 L132.279,26.320 L132.162,26.320 L132.162,25.690 L132.328,25.690 L132.518,26.123 L132.708,25.690 L132.873,25.690 L132.873,26.320 L132.757,26.320 L132.757,25.843 ZM131.826,26.320 L131.711,26.320 L131.711,25.797 L131.498,25.797 L131.498,25.691 L132.038,25.691 L132.038,25.797 L131.826,25.797 L131.826,26.320 Z" class="cls-1"/>
  </g>
</svg>
